<svg xmlns="http://www.w3.org/2000/svg" xmlns:xlink="http://www.w3.org/1999/xlink" id="Layer_1" viewBox="0 0 1200 327.3" style="enable-background:new 0 0 1200 327.3"><style>.st0{fill:#506a86}.st1{fill:#0089cf}.st2{fill:#d96931}.st3{fill:#f9a01b}.st4{fill:#00c0f3}.st5{fill:#3eb871}</style><g><g><g><g><g><g><g><path d="M1160.9 47.3c1.8-.4 4.4-.6 6.8-.6 3.8.0 6.3.7 8 2.3 1.4 1.2 2.2 3.1 2.2 5.2.0 3.6-2.3 6-5.2 7v.1c2.1.7 3.4 2.7 4.1 5.6.9 3.9 1.6 6.5 2.1 7.6h-3.7c-.5-.8-1.1-3.2-1.8-6.6-.8-3.8-2.3-5.2-5.6-5.4h-3.4v12h-3.6V47.3zM1164.5 59.9h3.6c3.8.0 6.2-2.1 6.2-5.2.0-3.6-2.6-5.1-6.4-5.1-1.7.0-2.9.2-3.5.3V59.9z"/></g></g></g></g></g><g><path d="M1169.2 86.1c-13.9.0-25.2-11.3-25.2-25.2s11.3-25.2 25.2-25.2c13.9.0 25.2 11.3 25.2 25.2S1183.1 86.1 1169.2 86.1zM1169.2 38.2c-12.5.0-22.7 10.2-22.7 22.7s10.2 22.7 22.7 22.7 22.7-10.2 22.7-22.7S1181.7 38.2 1169.2 38.2z"/></g></g><g><g><path class="st0" d="M469.9 46.7c3.4.0 5 1.5 6 4.2L535.1 218c.3.8.4 1.4.4 2 0 1.9-1.3 3-4.2 3h-22.7c-2.8.0-4.4-1.3-5.3-3.8l-13.1-38.8h-70l-13.1 38.8c-.9 2.5-2.5 3.8-5.3 3.8h-22.7c-2.9.0-4.2-1.1-4.2-3 0-.6.1-1.3.4-2l59.2-167.1c.9-2.6 2.6-4.2 6-4.2H469.9zM429 154.8h52.6l-26.3-78.1L429 154.8z"/><path class="st0" d="M589 223c-2.3.0-3.8-1-4.5-3L541.6 97.6c-.4-.9-.5-1.6-.5-2.3.0-1.9 1.1-2.8 3.8-2.8h22.2c2.5.0 4 1.3 4.8 3.5l32 97.4 32-97.4c.8-2.3 2.3-3.5 4.8-3.5h22.2c2.5.0 3.8.9 3.8 2.8.0.6-.3 1.4-.5 2.3L623.2 220c-.8 2-2.3 3-4.5 3H589z"/><path class="st0" d="M678.4 183.7c0-26.9 20.9-44.3 58.7-44.3H764v-6.3c0-15.4-8.3-19.9-27.7-19.9-13.8.0-28 3.5-39.5 9.3-.9.4-1.6.6-2.3.6-1.8.0-2.9-1.4-3.3-4.2l-1.3-10.8c-.4-2.8-.5-4.4-.5-5 0-1.6.8-2.9 2.5-3.8 11.6-6 29.2-9.8 45.6-9.8 38 0 55.1 12.6 55.1 49.1v79.6c0 2.8-2.3 4.8-4.8 4.8h-19.1c-2.5.0-4.8-2-4.8-4.8v-3c-10.3 8.6-23.7 10.8-35.8 10.8C700.5 226 678.4 211.7 678.4 183.7zM764 190.5v-27.9H738c-21.9.0-30.5 7.6-30.5 20.6.0 13.3 9.6 19.1 24.7 19.1C745.3 202.4 756.7 198.8 764 190.5z"/><path class="st0" d="M853.4 125v93.2c0 2.8-2.3 4.8-4.8 4.8h-19.4c-2.5.0-4.5-2-4.5-4.8V97.3c0-2.5 2-4.8 4.5-4.8h19.4c2.5.0 4.8 2.3 4.8 4.8v3c10.1-7.8 21.7-10.8 33-10.8 33 0 53.6 20.6 53.6 59.9v68.7c0 2.8-2 4.8-4.5 4.8h-19.6c-2.5.0-4.5-2-4.5-4.8v-69c0-24.9-9.3-36-29.2-36C871.2 113.2 860.4 117.2 853.4 125z"/><path class="st0" d="M958.1 97.3c0-2.8 2.3-4.8 4.8-4.8h16.9V58.3c0-2.8 2-4.8 4.5-4.8h19.6c2.5.0 4.5 2 4.5 4.8v34.2h34.2c2.5.0 4.5 2 4.5 4.8v13.6c0 2.8-2 4.8-4.5 4.8h-34.2v56.7c0 25.4 6 30 19.1 30 3.8.0 7.7-.4 11.5-1.1.5-.1 1.3-.3 1.6-.3 1.9.0 3 1.1 3.3 2.9l1.9 13.5c.1.9.3 2.4.3 2.8.0 2.9-1.5 4.5-4.4 4.9-4.5.8-9.8 1-15.9 1-30.7.0-46.1-14.6-46.1-45.6v-64.7h-16.9c-2.5.0-4.8-2-4.8-4.8V97.3z"/><path class="st0" d="M1084.7 39.2c12.1.0 17.1 6.3 17.1 17.1.0 10.8-5 17.1-17.1 17.1-12.1.0-17.1-6.3-17.1-17.1C1067.6 45.5 1072.7 39.2 1084.7 39.2zM1070.4 97.3c0-2.8 2.3-4.8 4.8-4.8h19.1c2.5.0 4.8 2 4.8 4.8v120.9c0 2.8-2.3 4.8-4.8 4.8h-19.1c-2.5.0-4.8-2-4.8-4.8V97.3z"/></g></g><g><g><path class="st0" d="M375.1 253.6c0-.9.8-1.8 1.8-1.8h37.7c.9.0 1.8.8 1.8 1.8v5.9c0 1-.8 1.8-1.8 1.8H386v17.1h26.3c1 0 1.8.7 1.8 1.8v5.9c0 .9-.7 1.8-1.8 1.8H386v27c0 .9-.8 1.8-1.8 1.8h-7.4c-.9.0-1.8-.8-1.8-1.8V253.6z"/><path class="st0" d="M443.9 296.7c.7 8.5 5.9 12.2 14.6 12.2 4.5.0 8.8-.8 12.1-2.7.4-.2.7-.3 1-.3.6.0 1.1.4 1.2 1.4l.5 4.6c0 .4.1 1 .1 1.3.0.6-.2 1.2-.8 1.5-3.9 2-9.1 3-14.4 3-17.1.0-25.1-10.6-25.1-25.1.0-15 8.5-24.9 22.2-24.9 14.1.0 22.2 10.4 22.2 25.3v2.1c0 .9-.7 1.8-1.8 1.8H443.9zM466.2 288.2c-.8-8.1-5-12-11.2-12-6.2.0-10.4 3.8-11.2 12H466.2z"/><path class="st0" d="M506.2 296.7c.7 8.5 5.9 12.2 14.6 12.2 4.5.0 8.8-.8 12.1-2.7.4-.2.7-.3 1-.3.6.0 1.1.4 1.2 1.4l.5 4.6c0 .4.1 1 .1 1.3.0.6-.2 1.2-.8 1.5-3.9 2-9.1 3-14.4 3-17.1.0-25.1-10.6-25.1-25.1.0-15 8.5-24.9 22.2-24.9 14.1.0 22.2 10.4 22.2 25.3v2.1c0 .9-.7 1.8-1.8 1.8H506.2zM528.6 288.2c-.8-8.1-5-12-11.2-12-6.2.0-10.4 3.8-11.2 12H528.6z"/><path class="st0" d="M591.4 313.6c-3 2.5-7.1 4-12 4-12.5.0-21.8-9.8-21.8-25 0-15.2 9.3-25 21.8-25 4.9.0 9 1.5 12 4v-20.7c0-.9.7-1.8 1.7-1.8h7.1c1 0 1.8.8 1.8 1.8v63.9c0 1-.7 1.8-1.8 1.8H593c-.9.0-1.7-.7-1.7-1.8V313.6zM591.4 280.5c-2.5-2.7-6.3-4.3-10.3-4.3-7.4.0-12.7 5.4-12.7 16.3s5.4 16.3 12.7 16.3c4.1.0 7.8-1.7 10.3-4.3v-24z"/><path class="st0" d="M624.8 314.4c-.6-.3-1.2-.9-1.2-1.7.0-.2.0-1 .1-1.6l.3-4.8c0-.9.5-1.4 1.1-1.4.3.0.6.1 1 .3 4.1 2.3 9 3.7 13.8 3.7 5.6.0 8.5-1.9 8.5-5.7.0-3.1-2.1-5.1-9.5-7.1-10.2-2.8-15-7.5-15-14.9.0-8.9 6.4-13.7 18.4-13.7 4.9.0 9.6.9 13.3 2.5.7.3 1 .8 1 1.4.0.2.0.9-.1 1.2l-.5 4.9c-.1.9-.4 1.3-1 1.3-.2.0-.6-.1-.9-.3-3.2-1.7-7.6-2.5-11.9-2.5-5.4.0-7.6 1.8-7.6 4.4.0 3 1.9 5.1 8.8 7 12.2 3.5 15.7 8.4 15.7 15 0 9.6-6.4 14.9-19.2 14.9C634.7 317.6 629.5 316.6 624.8 314.4z"/><path class="st0" d="M720.6 253.6c0-.9.7-1.8 1.8-1.8h7.4c1 0 1.8.8 1.8 1.8V307h31.2c.9.0 1.8.7 1.8 1.8v5.9c0 .9-.8 1.8-1.8 1.8h-40.3c-1 0-1.8-.8-1.8-1.8V253.6z"/><path class="st0" d="M789.5 249.1c4.4.0 6.3 2.3 6.3 6.3.0 4-1.8 6.3-6.3 6.3-4.4.0-6.3-2.3-6.3-6.3C783.3 251.4 785.1 249.1 789.5 249.1zM784.3 270.4c0-1 .8-1.8 1.8-1.8h7c.9.0 1.8.7 1.8 1.8v44.3c0 1-.8 1.8-1.8 1.8h-7c-.9.0-1.8-.7-1.8-1.8V270.4z"/><path class="st0" d="M888.9 288.3v26.4c0 1-.7 1.8-1.7 1.8H880c-1 0-1.8-.7-1.8-1.8v-27.1c0-7.4-3-11.4-8.7-11.4-4.2.0-8 1.8-11 5.4.6 2.5.7 4.6.7 6.7v26.4c0 1-.7 1.8-1.8 1.8h-7.2c-.9.0-1.7-.7-1.7-1.8v-27.1c0-7.8-3.3-11.4-8.7-11.4-3.9.0-7.8 1.6-10.2 4.4v34.1c0 1-.8 1.8-1.8 1.8h-7c-.9.0-1.8-.7-1.8-1.8v-44.3c0-1 .8-1.8 1.8-1.8h7c.9.0 1.8.7 1.8 1.8v1.1c3-2.6 7.7-4 11.7-4 5.4.0 10.2 2 13.6 6.2 4.5-4.3 9.8-6.2 15.6-6.2C881.3 267.5 888.9 274.9 888.9 288.3z"/><path class="st0" d="M918.2 249.1c4.4.0 6.3 2.3 6.3 6.3.0 4-1.8 6.3-6.3 6.3-4.4.0-6.3-2.3-6.3-6.3C911.9 251.4 913.7 249.1 918.2 249.1zM912.9 270.4c0-1 .8-1.8 1.8-1.8h7c.9.0 1.8.7 1.8 1.8v44.3c0 1-.8 1.8-1.8 1.8h-7c-.9.0-1.8-.7-1.8-1.8V270.4z"/><path class="st0" d="M942.8 270.4c0-1 .8-1.8 1.8-1.8h6.2v-12.6c0-1 .7-1.8 1.7-1.8h7.2c.9.0 1.7.7 1.7 1.8v12.6h12.6c.9.0 1.7.7 1.7 1.8v5c0 1-.7 1.8-1.7 1.8h-12.6V298c0 9.3 2.2 11 7 11 1.4.0 2.8-.1 4.2-.4.2.0.5-.1.6-.1.7.0 1.1.4 1.2 1.1l.7 4.9c0 .3.1.9.1 1 0 1.1-.6 1.7-1.6 1.8-1.7.3-3.6.4-5.8.4-11.3.0-16.9-5.4-16.9-16.7v-23.7h-6.2c-.9.0-1.8-.7-1.8-1.8V270.4z"/><path class="st0" d="M1003.1 296.7c.7 8.5 5.9 12.2 14.6 12.2 4.5.0 8.8-.8 12.1-2.7.4-.2.7-.3 1-.3.6.0 1.1.4 1.2 1.4l.5 4.6c0 .4.1 1 .1 1.3.0.6-.2 1.2-.8 1.5-3.9 2-9.1 3-14.4 3-17.1.0-25.1-10.6-25.1-25.1.0-15 8.5-24.9 22.2-24.9 14.1.0 22.2 10.4 22.2 25.3v2.1c0 .9-.7 1.8-1.8 1.8H1003.1zM1025.5 288.2c-.8-8.1-5-12-11.2-12-6.2.0-10.4 3.8-11.2 12H1025.5z"/><path class="st0" d="M1088.3 313.6c-3 2.5-7.1 4-12 4-12.5.0-21.8-9.8-21.8-25 0-15.2 9.3-25 21.8-25 4.9.0 9 1.5 12 4v-20.7c0-.9.7-1.8 1.7-1.8h7.1c1 0 1.8.8 1.8 1.8v63.9c0 1-.7 1.8-1.8 1.8h-7.1c-.9.0-1.7-.7-1.7-1.8V313.6zM1088.3 280.5c-2.5-2.7-6.3-4.3-10.3-4.3-7.4.0-12.7 5.4-12.7 16.3s5.4 16.3 12.7 16.3c4.1.0 7.8-1.7 10.3-4.3v-24z"/></g></g><g><path class="st1" d="M309.2 268.8c0 0 0 12.1.0 17.8.0 22.5-14.8 33.7-81.8 33.7-21.6.0-139.1.0-197.4.0-24.6.0-28.5-4.1-22.3-11.4 18.2-21.5 71.9-58.1 145.4-40.1 51.6 12.7 72.1 24.1 115.1 19.3C294.8 285.1 309.2 268.8 309.2 268.8z"/><path class="st2" d="M163.1 251.5c-45.8-12-69.2-14-104.9 5.7-.9.5-1.8-.6-1.1-1.3l61.3-65c1.4-1.5 3.5-2.1 5.4-1.5 19 5.8 51.5 21.9 59.6 39.8C191.4 246.6 186.2 257.5 163.1 251.5z"/><path class="st3" d="M193.9 220.7c-14-21.2-32.1-39.1-54.6-48.7-1.1-.5-1.5-1.9-.6-2.8l46.6-49.5c1.4-1.5 3.8-1.7 5.3-.3 11.7 10.9 21.3 29.6 29.3 51.9 4.2 11.6 7.5 28.2 4.4 43.3C221.5 228.9 205.1 237.6 193.9 220.7z"/><path class="st4" d="M309.2 79.4c0 37.7-11.2 80.8-23.4 107.6-10.6 23.3-25.2 50.9-39.4 45.1-13.3-5.4-6.5-24.9-8.4-45.1-4.2-44.2-12.9-65.3-29-86.3-1.2-1.5-1.1-3.7.2-5.2l79.4-85.4C296.3 1.7 309.2-2.2 309.2 79.4z"/><path class="st5" d="M309.2 190c0 0 0 11.4.0 35.4.0 17.6-8.7 45.5-29.6 45.4-11.6.0-22.2-16.7-8.6-30.1 7.9-7.9 22.3-18.7 33.9-51.3C305.6 187 309.2 187.5 309.2 190z"/></g></g></svg>